<svg id="Layer_1" data-name="Layer 1" xmlns="http://www.w3.org/2000/svg" version="1.1" viewBox="0 0 1920 1080"><defs><style>.cls-1{fill:#00a0de}.cls-1,.cls-2,.cls-3{fill-rule:evenodd;stroke-width:0}.cls-2{fill:#f07316}.cls-3{fill:#e83b23}</style></defs><path d="M170.7 841.1c9.1 0 16.4 7.3 16.4 16.4v74.2h-13.6V900h-63.4v31.7H96.5v-74.2c0-9.1 7.3-16.4 16.4-16.4h57.9-.1Zm2.8 45.3v-28.9c0-1.5-1.3-2.8-2.8-2.8h-57.9c-1.5 0-2.8 1.3-2.8 2.8v28.9h63.5Zm150.4-45.3v13.6h-38.5v77h-13.6v-77h-38.5v-13.6h90.6Zm96.8 0v1.9l-36.4 43.4 36.4 43.4v1.9h-16.1l-32.3-38.5h-25.2v38.5h-13.6v-90.6h13.6v38.5h25.2l32.3-38.5h16.1Zm26.3 90.6h-13.6v-13.6H447v13.6Zm103.5-69h-13.6v-5.3c0-1.5-1.3-2.8-2.8-2.8h-57.9c-1.5 0-2.8 1.3-2.8 2.8v19.4c0 1.5 1.3 2.8 2.8 2.8h57.9c9.1 0 16.4 7.3 16.4 16.4v19.4c0 9.1-7.3 16.4-16.4 16.4h-57.9c-9.1 0-16.4-7.3-16.4-16.4v-5.3h13.6v5.3c0 1.5 1.3 2.8 2.8 2.8h57.9c1.5 0 2.8-1.3 2.8-2.8V896c0-1.5-1.3-2.8-2.8-2.8h-57.9c-9.1 0-16.4-7.3-16.4-16.4v-19.4c0-9.1 7.3-16.4 16.4-16.4h57.9c9.1 0 16.4 7.3 16.4 16.4v5.3Zm70.7-4c9.1 0 16.4 7.3 16.4 16.4v40.3c0 9.1-7.3 16.4-16.4 16.4h-41.5c-9.1 0-16.4-7.3-16.4-16.4v-40.3c0-9.1 7.3-16.4 16.4-16.4h41.5Zm-41.5 13.6c-1.5 0-2.8 1.3-2.8 2.8v40.3c0 1.5 1.3 2.8 2.8 2.8h41.5c1.5 0 2.8-1.3 2.8-2.8v-40.3c0-1.5-1.3-2.8-2.8-2.8h-41.5Zm68.3-37.5h13.6v80.5c0 1.5 1.3 2.8 2.8 2.8H678v13.6h-13.6c-9.1 0-16.4-7.3-16.4-16.4v-80.5Zm114.1 23.9v56.6c0 9.1-7.3 16.4-16.4 16.4h-41.5c-9.1 0-16.4-7.3-16.4-16.4v-56.6h13.6v56.6c0 1.5 1.3 2.8 2.8 2.8h41.5c1.5 0 2.8-1.3 2.8-2.8v-56.6h13.6Zm24.9 13.6v43c0 1.5 1.3 2.8 2.8 2.8H817v13.6h-27.2c-9.1 0-16.4-7.3-16.4-16.4v-80.5H787v23.9h29.9v13.6H787Zm51.5-37.5v13.6h-13.6v-13.6h13.6Zm-13.6 23.9h13.6v73h-13.6v-73Zm83.9 0c9.1 0 16.4 7.3 16.4 16.4v40.3c0 9.1-7.3 16.4-16.4 16.4h-41.5c-9.1 0-16.4-7.3-16.4-16.4v-40.3c0-9.1 7.3-16.4 16.4-16.4h41.5Zm-41.5 13.6c-1.5 0-2.8 1.3-2.8 2.8v40.3c0 1.5 1.3 2.8 2.8 2.8h41.5c1.5 0 2.8-1.3 2.8-2.8v-40.3c0-1.5-1.3-2.8-2.8-2.8h-41.5Zm143.4 2.7v56.6h-13.6V875c0-1.5-1.3-2.8-2.8-2.8h-41.5c-1.5 0-2.8 1.3-2.8 2.8v56.6h-13.6v-73h57.9c9.1 0 16.4 7.3 16.4 16.4Zm86.8 2.8h-13.6V875c0-1.5-1.3-2.8-2.8-2.8h-41.5c-1.5 0-2.8 1.3-2.8 2.8v10.6c0 1.5 1.3 2.8 2.8 2.8h41.5c9.1 0 16.4 7.3 16.4 16.4v10.6c0 9.1-7.3 16.4-16.4 16.4h-41.5c-9.1 0-16.4-7.3-16.4-16.4v-2.8h13.6v2.8c0 1.5 1.3 2.8 2.8 2.8h41.5c1.5 0 2.8-1.3 2.8-2.8v-10.6c0-1.5-1.3-2.8-2.8-2.8h-41.5c-9.1 0-16.4-7.3-16.4-16.4V875c0-9.1 7.3-16.4 16.4-16.4h41.5c9.1 0 16.4 7.3 16.4 16.4v2.8Zm65.9-23.1c-1.5 0-2.8 1.3-2.8 2.8v57.9c0 1.5 1.3 2.8 2.8 2.8h74v13.6h-74c-9.1 0-16.4-7.3-16.4-16.4v-57.9c0-9.1 7.3-16.4 16.4-16.4h74v13.6h-74Zm144.3 4c9.1 0 16.4 7.3 16.4 16.4v40.3c0 9.1-7.3 16.4-16.4 16.4h-41.5c-9.1 0-16.4-7.3-16.4-16.4v-40.3c0-9.1 7.3-16.4 16.4-16.4h41.5Zm-41.5 13.6c-1.5 0-2.8 1.3-2.8 2.8v40.3c0 1.5 1.3 2.8 2.8 2.8h41.5c1.5 0 2.8-1.3 2.8-2.8v-40.3c0-1.5-1.3-2.8-2.8-2.8h-41.5Zm180.7 2.7v56.6h-13.5V875c0-1.5-1.3-2.8-2.9-2.8h-28.8c-1.5 0-2.8 1.3-2.8 2.8v56.6h-13.6V875c0-1.5-1.3-2.8-2.8-2.8h-28.9c-1.5 0-2.8 1.3-2.8 2.8v56.6h-13.6v-73h93.2c9.1 0 16.4 7.3 16.4 16.4h.1Zm86.4 0v40.3c0 9.1-7.3 16.4-16.4 16.4h-44.3v28.9H1459V858.7h57.9c9.1 0 16.4 7.3 16.4 16.4Zm-13.6 0c0-1.5-1.3-2.8-2.8-2.8h-41.5c-1.5 0-2.8 1.3-2.8 2.8v40.3c0 1.5 1.3 2.8 2.8 2.8h41.5c1.5 0 2.8-1.3 2.8-2.8V875Zm96.9 0v56.6h-57.9c-9.1 0-16.4-7.3-16.4-16.4v-26.9h60.6V875c0-1.5-1.3-2.8-2.8-2.8h-57.9v-13.6h57.9c9.1 0 16.4 7.3 16.4 16.4h.1Zm-13.6 27h-47.1v13.3c0 1.5 1.3 2.8 2.8 2.8h44.3V902Zm98.6-27v56.6H1688V875c0-1.5-1.3-2.8-2.8-2.8h-41.5c-1.5 0-2.8 1.3-2.8 2.8v56.6h-13.6v-73h57.9c9.1 0 16.4 7.3 16.4 16.4Zm86.1 29v40.3c0 9.1-7.3 16.4-16.4 16.4h-45v-13.6h45c1.5 0 2.8-1.3 2.8-2.8v-12.6h-44.3c-9.1 0-16.4-7.3-16.4-16.4v-56.4h13.6v56.4c0 1.5 1.3 2.8 2.8 2.8h41.5c1.5 0 2.8-1.3 2.8-2.8v-56.4h13.6v45Z" style="fill:#fff;stroke-width:0" id="Layer_10" data-name="Layer 10"/><g id="TK.Solutions"><g id="TK.Solutions-2"><path class="cls-3" d="M983.7 144.4c4.1-7.5 6.6-7 11.6.7s50.1 87.6 85 149 98.2 171.2 102.8 180.5c4.6 9.3 15 23.6 12.4 25.3-2.6 1.7-22.1-27.1-39.9-50.4s-62-73.5-118.3-102c-56.4-28.6-88-37.9-96.5-41.1s-22.3-4-15.9-24.4c6.3-20.4 14.7-45.3 29.4-76.4 14.5-31.1 25.3-53.7 29.4-61.2Z"/><path class="cls-3" d="M908.3 357c5.7-12.7 12-9.7 30.7-6.3 18.7 3.5 67.3 14.2 114 42.2 46.7 28 95.6 67.3 144.6 129.4 48.9 62.1 91.2 149.5 94 154.2 2.7 4.7-.2 8.6-5.8-.4-5.7-9-102.5-131.2-175.9-168.7-23.1-11.8-53.6-27.3-85.3-34.5-30.6-7-56.6-7.6-89.8-1-10.3 2.1-17.3-3.5-19.3-8.2s-9.8-25.1-12.2-46.3c-2.5-21.2 1.8-53.3 5-60.4Z"/><path class="cls-1" d="M1290.8 726c4.4 7.3 2.8 9.2-6.4 9.7s-101 .3-171.5.3-197.4.8-207.7.2c-10.4-.6-28 1.4-28.1-1.7 0-3.1 34.5-5.9 63.6-9.8s94.5-17.6 147.2-52.5 76.5-57.8 83.5-63.6 14.5-17.4 29.1-1.8c14.6 15.5 32.1 35.2 51.8 63.3 19.8 28 34.1 48.6 38.5 55.9Z"/><path class="cls-1" d="M1143.5 555.5c8.2 11.2 2.5 15.2-9.8 29.8s-45.7 51.5-93.1 78.2-105.8 49.9-184 61.8c-78.2 11.9-175.1 5.5-180.5 5.5s-7.4-4.4 3.2-4.9 164.8-24.3 233.7-69.6c21.7-14.3 50.2-33.1 72.3-57.1 21.2-23.1 34.7-45.4 45.3-77.5 3.3-10 11.6-13.3 16.7-12.7 5.1.6 26.7 3.9 46.3 12.3 19.5 8.4 45.4 27.9 49.9 34.2Z"/><path class="cls-2" d="M634.7 698.9c-8.5.2-9.4-2.2-5.2-10.4S680 601.1 715.4 540c35.5-61 98.5-171 104.2-179.7s12.9-24.9 15.6-23.4c2.8 1.5-12.3 32.8-23.4 59.9-11.2 27.1-32.3 90.6-28.6 153.7 3.7 63.1 11.5 95.2 13 104.2s7.7 21.3-13 26c-20.8 4.8-46.5 10.1-80.7 13-34.3 3-59.3 5-67.8 5.2Z"/><path class="cls-2" d="M856.1 657.2c-13.9 1.5-14.5-5.4-20.9-23.4s-21.6-65.4-20.8-119.8 10-116.5 39.1-190.1c29-73.6 83.2-154.2 85.9-158.9s7.5-4.2 2.6 5.2-61.8 154.7-57.3 237c1.4 25.9 3.4 60 13 91.2 9.3 30 21.8 52.8 44.3 78.1 7 7.9 5.7 16.7 2.6 20.8-3.1 4.1-16.8 21.1-33.9 33.9-17 12.7-46.9 25.2-54.6 26Z"/></g></g></svg>