<?xml version="1.0" encoding="UTF-8"?><svg xmlns="http://www.w3.org/2000/svg" viewBox="0 0 336.64 75.59"><defs><style>.c{fill:#acadad;}.c,.d{stroke-width:0px;}.d{fill:#e93b23;}</style></defs><g id="a"><path class="d" d="M336.64 71.44H46.5c-.47 0-.88-.11-1.28-.31-.6-.29-1.15-.81-1.51-1.37-.18-.28-.32-.56-.4-.79-.08-.23-.1-.41-.1-.46 0-1.85.01-13.26.01-14h-4.13c0 .74-.01 12.15-.01 14 0 .86.23 1.65.57 2.41a8.353 8.353 0 0 0 2.49 3.13c1.14.88 2.65 1.52 4.37 1.52l290.14-.01v-4.13Z"/><polygon class="c" points="27.57 32.53 11.05 32.53 11.05 34.11 27.55 34.11 27.57 32.53"/><rect class="c" x="72.71" y="32.53" width="10.77" height="1.58"/><rect class="c" x="53.9" y="32.53" width="17.23" height="1.58"/><rect class="c" y="32.53" width="9.47" height="1.58"/><polygon class="c" points="71.13 32.53 71.13 34.11 71.13 53.14 72.71 53.14 72.71 34.11 72.71 32.53 72.71 14.13 71.13 14.13 71.13 32.53"/><rect class="c" x="71.13" y="54.72" width="1.58" height="13.37"/><rect class="c" x="71.13" width="1.58" height="12.55"/><rect class="c" x="50.33" y="14.13" width="1.58" height=".08"/><rect class="c" x="50.33" width="1.58" height="12.55"/><rect class="c" x="50.33" y="54.72" width="1.58" height="13.37"/><rect class="c" x="29.6" width="1.58" height="12.55"/><rect class="c" x="29.6" y="54.72" width="1.58" height="13.37"/><rect class="c" x="29.6" y="14.13" width="1.58" height=".08"/><rect class="c" x="9.47" width="1.58" height="12.55"/><rect class="c" x="9.47" y="54.72" width="1.58" height="13.37"/><polygon class="c" points="11.05 34.11 11.05 32.53 11.05 14.13 9.47 14.13 9.47 32.53 9.47 34.11 9.47 53.14 11.05 53.14 11.05 34.11"/><polygon class="c" points="71.13 53.14 53.9 53.14 53.9 53.29 27.26 53.29 27.26 53.14 11.05 53.14 9.47 53.14 .02 53.14 .02 54.72 9.47 54.72 11.05 54.72 29.6 54.72 31.18 54.72 50.33 54.72 51.91 54.72 71.13 54.72 72.71 54.72 83.51 54.72 83.51 53.14 72.71 53.14 71.13 53.14"/><polygon class="c" points="29.6 14.13 31.18 14.13 50.33 14.13 51.91 14.13 71.13 14.13 72.71 14.13 83.48 14.13 83.48 12.55 72.71 12.55 71.13 12.55 51.91 12.55 50.33 12.55 31.18 12.55 29.6 12.55 11.05 12.55 9.47 12.55 0 12.55 0 14.13 9.47 14.13 11.05 14.13 29.6 14.13"/><path class="c" d="M27.51 11.31v.58H54c.56 0 1 .45 1.01 1.01v41.32c0 .56-.45 1-1.01 1.01H27.51c-.56 0-1-.45-1.01-1.01V12.89c0-.56.45-1 1.01-1.01v-1.15c-1.19 0-2.16.97-2.16 2.16v41.32c0 1.19.97 2.16 2.16 2.16H54c1.19 0 2.16-.97 2.16-2.16V12.89c0-1.19-.97-2.16-2.16-2.16H27.51v.58Z"/><path class="c" d="M54 11.31H27.51c-.87 0-1.58.71-1.58 1.58v41.32c0 .87.71 1.58 1.58 1.58H54c.87 0 1.58-.71 1.58-1.58V12.89c0-.87-.71-1.58-1.58-1.58Zm-3.36 28.9c-3.68 5.46-11.09 6.91-16.55 3.23-5.46-3.68-6.91-11.09-3.23-16.55 3.68-5.46 11.09-6.91 16.55-3.23 5.46 3.68 6.91 11.09 3.23 16.55Z"/><circle class="c" cx="40.75" cy="33.55" r="6.29" transform="rotate(-60.04 40.749 33.552)"/><path class="c" d="m35.54 30.04.16.11a6.084 6.084 0 0 1 5.06-2.69c1.17 0 2.35.34 3.4 1.04a6.084 6.084 0 0 1 2.69 5.06c0 1.17-.34 2.35-1.04 3.4a6.084 6.084 0 0 1-5.06 2.69c-1.17 0-2.35-.34-3.4-1.04a6.084 6.084 0 0 1-2.69-5.06c0-1.17.34-2.35 1.04-3.4l-.16-.11-.16-.11a6.47 6.47 0 0 0 1.75 8.99 6.47 6.47 0 0 0 8.99-1.75 6.47 6.47 0 0 0-1.75-8.99 6.47 6.47 0 0 0-8.99 1.75l.16.11ZM39.24 25.8c.5-.1 1.01-.15 1.52-.15 1.52 0 3.05.43 4.4 1.35l1.12-1.66a9.86 9.86 0 0 0-5.52-1.69c-.64 0-1.28.06-1.9.18l.38 1.96ZM36.34 40.1A7.873 7.873 0 0 1 33 35.06l-1.96.38a9.833 9.833 0 0 0 4.19 6.31l1.12-1.66ZM47.3 37.96a7.873 7.873 0 0 1-5.04 3.34l.38 1.96a9.833 9.833 0 0 0 6.31-4.19l-1.66-1.12Z"/><rect class="c" x="35.41" y="55.9" width="10.87" height="3.44" rx=".79" ry=".79"/><path class="c" d="M45.49 55.9v-.58H36.2c-.75 0-1.37.61-1.37 1.37v1.86c0 .75.61 1.37 1.37 1.37h9.29c.75 0 1.37-.61 1.37-1.37v-1.86c0-.75-.61-1.37-1.37-1.37v1.15c.12 0 .21.1.22.22v1.86c0 .12-.1.22-.22.22H36.2c-.12 0-.22-.1-.22-.22v-1.86c0-.12.1-.22.22-.22h9.29v-.58Z"/><path class="d" d="M41.8 31.07c.32.14.61.33.86.58.24.24.44.54.58.86.14.32.21.67.21 1.05 0 .37-.08.73-.21 1.05-.14.32-.33.61-.58.86-.24.24-.54.44-.86.58-.32.14-.67.21-1.05.21-.37 0-.73-.08-1.05-.21-.32-.14-.61-.33-.86-.58-.24-.24-.44-.54-.58-.86-.14-.32-.21-.67-.21-1.05 0-.37.08-.73.21-1.05.14-.32.33-.61.58-.86.24-.24.54-.44.86-.58l-.78-1.84c-.56.24-1.07.58-1.49 1.01-.42.42-.77.93-1.01 1.49-.24.56-.37 1.18-.37 1.83 0 .65.13 1.27.37 1.83s.58 1.07 1.01 1.49c.42.42.93.77 1.49 1.01.56.24 1.18.37 1.83.37.65 0 1.27-.13 1.83-.37s1.07-.58 1.49-1.01c.42-.42.77-.93 1.01-1.49.24-.56.37-1.18.37-1.83 0-.65-.13-1.27-.37-1.83s-.58-1.07-1.01-1.49c-.42-.42-.93-.77-1.49-1.01l-.78 1.84Z"/></g><g id="b"><path class="c" d="M93.49 32.87h9.37v-4.72h-9.37c-1.22 0-2.28-.51-3.17-1.53-.89-1.02-1.34-2.27-1.34-3.75s.45-2.73 1.34-3.75c.89-1.02 1.95-1.53 3.17-1.53h9.37v-4.72h-9.37c-2.6 0-4.81.98-6.63 2.94-1.82 1.96-2.73 4.31-2.73 7.05s.91 5.09 2.73 7.05c1.82 1.96 4.03 2.94 6.63 2.94ZM118.73 28.15h-5.2c-1.22 0-2.28-.51-3.17-1.53-.89-1.02-1.34-2.27-1.34-3.75s.45-2.73 1.34-3.75c.89-1.02 1.95-1.53 3.17-1.53h5.9v15.27h4.86V12.89h-10.75c-2.6 0-4.81.98-6.63 2.94-1.82 1.96-2.73 4.31-2.73 7.05s.91 5.09 2.73 7.05c1.82 1.96 4.03 2.94 6.63 2.94h5.2v-4.72ZM134.95 32.87h9.37V20.52h-7.63v4.72h2.78v2.91h-4.51c-1.22 0-2.28-.51-3.17-1.53-.89-1.02-1.34-2.27-1.34-3.75s.45-2.73 1.34-3.75c.89-1.02 1.95-1.53 3.17-1.53h9.37v-4.72h-9.37c-2.6 0-4.81.98-6.63 2.94-1.82 1.96-2.73 4.31-2.73 7.05s.91 5.09 2.73 7.05c1.82 1.96 4.03 2.94 6.63 2.94ZM147.44 31.05c1.21 1.21 2.69 1.82 4.43 1.82h12.49v-4.72h-12.49c-.37 0-.69-.14-.97-.42s-.42-.62-.42-1.04.14-.76.42-1.04.6-.42.97-.42h12.49v-4.72h-12.49c-.37 0-.69-.14-.97-.42s-.42-.62-.42-1.04.14-.76.42-1.04c.28-.28.6-.42.97-.42h12.49v-4.72h-12.49c-1.74 0-3.21.61-4.43 1.82-1.21 1.21-1.82 2.66-1.82 4.36 0 1.52.44 2.79 1.33 3.82-.89 1.03-1.33 2.3-1.33 3.82 0 1.69.61 3.15 1.82 4.36Z"/><path class="d" d="M181.27 31.05c1.21 1.21 2.69 1.82 4.43 1.82h12.49v-4.72H185.7c-.37 0-.69-.14-.97-.42s-.42-.62-.42-1.04.14-.76.42-1.04.6-.42.97-.42h12.49v-4.72H185.7c-.37 0-.69-.14-.97-.42s-.42-.62-.42-1.04.14-.76.42-1.04c.28-.28.6-.42.97-.42h12.49v-4.72H185.7c-1.74 0-3.21.61-4.43 1.82-1.21 1.21-1.82 2.66-1.82 4.36 0 1.52.44 2.79 1.33 3.82-.89 1.03-1.33 2.3-1.33 3.82 0 1.69.61 3.15 1.82 4.36Z"/><polygon class="d" points="218.23 28.15 204.35 28.15 204.35 12.89 199.49 12.89 199.49 32.87 218.23 32.87 218.23 28.15"/><path class="d" d="M221.35 31.05c1.21 1.21 2.69 1.82 4.43 1.82h12.49v-4.72h-12.49c-.37 0-.69-.14-.97-.42s-.42-.62-.42-1.04.14-.76.42-1.04.6-.42.97-.42h12.49v-4.72h-12.49c-.37 0-.69-.14-.97-.42s-.42-.62-.42-1.04.14-.76.42-1.04c.28-.28.6-.42.97-.42h12.49v-4.72h-12.49c-1.74 0-3.21.61-4.43 1.82-1.21 1.21-1.82 2.66-1.82 4.36 0 1.52.44 2.79 1.33 3.82-.89 1.03-1.33 2.3-1.33 3.82 0 1.69.61 3.15 1.82 4.36ZM248.93 32.87h9.37v-4.72h-9.37c-1.22 0-2.28-.51-3.17-1.53-.89-1.02-1.34-2.27-1.34-3.75s.45-2.73 1.34-3.75c.89-1.02 1.95-1.53 3.17-1.53h9.37v-4.72h-9.37c-2.6 0-4.81.98-6.63 2.94-1.82 1.96-2.73 4.31-2.73 7.05s.91 5.09 2.73 7.05c1.82 1.96 4.03 2.94 6.63 2.94Z"/><polygon class="d" points="259.6 17.61 266.54 17.61 266.54 32.87 271.4 32.87 271.4 17.61 278.34 17.61 278.34 12.89 259.6 12.89 259.6 17.61"/><path class="d" d="M291.78 25.93c.46 0 .87.17 1.21.52.35.35.52.77.52 1.28v5.13h4.86v-5.13c0-1.66-.5-3.04-1.51-4.16 1.01-1.12 1.51-2.51 1.51-4.16 0-1.79-.64-3.32-1.92-4.6-1.28-1.28-2.84-1.92-4.67-1.92h-12.14v20.59h4.83l.03-7.54h7.28Zm-7.25-8.32h7.25c.46 0 .87.17 1.21.52.35.35.52.77.52 1.28s-.17.94-.52 1.28-.75.52-1.21.52h-7.27V17.6Z"/><rect class="d" x="299.68" y="12.89" width="4.86" height="19.98"/><path class="d" d="M315.21 32.87h9.37v-4.72h-9.37c-1.22 0-2.28-.51-3.17-1.53-.89-1.02-1.34-2.27-1.34-3.75s.45-2.73 1.34-3.75c.89-1.02 1.95-1.53 3.17-1.53h9.37v-4.72h-9.37c-2.6 0-4.81.98-6.63 2.94-1.82 1.96-2.73 4.31-2.73 7.05s.91 5.09 2.73 7.05c1.82 1.96 4.03 2.94 6.63 2.94Z"/><path class="c" d="M100.37 39.36h-4.86v2.76h-4.86c-.37.01-.69-.12-.97-.4s-.42-.62-.42-1.04.14-.76.42-1.04c.28-.28.6-.42.97-.42h4.16V34.5h-4.16c-1.74 0-3.21.61-4.43 1.82-1.21 1.21-1.82 2.66-1.82 4.36 0 1.52.44 2.79 1.33 3.82-.89 1.03-1.33 2.3-1.33 3.82 0 1.69.61 3.15 1.82 4.36 1.21 1.21 2.69 1.82 4.43 1.82h3.48c1.74 0 3.21-.61 4.43-1.82 1.21-1.21 1.82-2.66 1.82-4.36v-1.46h2.76v-4.72h-2.78v-2.78Zm-4.86 8.95c0 .42-.14.76-.41 1.04-.27.28-.59.42-.96.42h-3.48c-.37 0-.69-.14-.97-.42s-.42-.62-.42-1.04.14-.76.42-1.04.6-.42.97-.42h4.86v1.46ZM128.73 34.5h-12.14V54.49h4.86v-6.94h7.29c1.83 0 3.39-.64 4.67-1.92s1.92-2.81 1.92-4.6-.64-3.32-1.92-4.6c-1.28-1.28-2.84-1.92-4.67-1.92Zm1.22 7.81c-.35.35-.75.52-1.21.52h-7.29v-3.61h7.29c.46 0 .87.17 1.21.52.35.35.52.77.52 1.28s-.17.94-.52 1.28ZM152.62 36.42c-1.28-1.28-2.84-1.92-4.67-1.92h-12.14V54.49h4.86v-6.94h7.29c.46 0 .87.17 1.21.52.35.35.52.77.52 1.28v5.13h4.86v-5.13c0-1.66-.5-3.04-1.51-4.16 1.01-1.12 1.51-2.51 1.51-4.16 0-1.79-.64-3.32-1.92-4.6Zm-3.46 5.89c-.35.35-.75.52-1.21.52h-7.29v-3.61h7.29c.46 0 .87.17 1.21.52.35.35.52.77.52 1.28s-.17.94-.52 1.28ZM165.08 34.5c-2.79 0-5.17.98-7.13 2.94s-2.94 4.31-2.94 7.06.98 5.1 2.94 7.06 4.33 2.94 7.13 2.94 5.17-.98 7.13-2.94 2.94-4.31 2.94-7.06-.98-5.1-2.94-7.06-4.33-2.94-7.13-2.94Zm3.67 13.73c-1.02 1.02-2.25 1.53-3.67 1.53s-2.65-.51-3.67-1.53-1.53-2.27-1.53-3.74.51-2.72 1.53-3.74 2.25-1.53 3.67-1.53 2.65.51 3.67 1.53 1.53 2.27 1.53 3.74-.51 2.72-1.53 3.74ZM184.98 34.5h-9.37v19.99h9.37c2.6 0 4.81-.98 6.63-2.94s2.73-4.31 2.73-7.05-.91-5.09-2.73-7.05-4.03-2.94-6.63-2.94Zm3.17 13.74c-.89 1.02-1.95 1.53-3.17 1.53h-4.51V39.22h4.51c1.22 0 2.28.51 3.17 1.53.89 1.02 1.34 2.27 1.34 3.75s-.45 2.73-1.34 3.75ZM210.09 45.19c0 1.27-.51 2.35-1.53 3.24-1.02.89-2.24 1.34-3.68 1.34s-2.66-.45-3.68-1.34c-1.02-.89-1.53-1.97-1.53-3.24V34.5h-4.86v10.69c0 2.55.98 4.74 2.94 6.56 1.96 1.82 4.33 2.73 7.12 2.73s5.16-.91 7.12-2.73c1.96-1.82 2.94-4.01 2.94-6.56V34.5h-4.86v10.69ZM218.16 37.44c-1.82 1.96-2.73 4.31-2.73 7.05s.91 5.09 2.73 7.05c1.82 1.96 4.03 2.94 6.63 2.94h9.37v-4.72h-9.37c-1.22 0-2.28-.51-3.17-1.53-.89-1.02-1.34-2.27-1.34-3.75s.45-2.73 1.34-3.75c.89-1.02 1.95-1.53 3.17-1.53h9.37v-4.72h-9.37c-2.6 0-4.81.98-6.63 2.94Z"/><polygon class="c" points="234.64 39.22 241.58 39.22 241.58 54.48 246.44 54.48 246.44 39.22 253.38 39.22 253.38 34.5 234.64 34.5 234.64 39.22"/><path class="c" d="M255.67 36.32c-1.21 1.21-1.82 2.66-1.82 4.36s.61 3.15 1.82 4.36c1.21 1.21 2.69 1.82 4.43 1.82h6.25c.37 0 .69.14.97.42s.42.62.42 1.04-.14.76-.42 1.04-.6.42-.97.42h-12.49v4.72h12.49c1.74 0 3.21-.61 4.43-1.82 1.21-1.21 1.82-2.66 1.82-4.36s-.61-3.15-1.82-4.36-2.69-1.82-4.43-1.82h-6.25c-.37 0-.69-.14-.97-.42s-.42-.62-.42-1.04.14-.76.42-1.04c.28-.28.6-.42.97-.42h12.49V34.5H260.1c-1.74 0-3.21.61-4.43 1.82ZM288.77 37.44c-1.82 1.96-2.73 4.31-2.73 7.05s.91 5.09 2.73 7.05c1.82 1.96 4.03 2.94 6.63 2.94h9.37v-4.72h-9.37c-1.22 0-2.28-.51-3.17-1.53-.89-1.02-1.34-2.27-1.34-3.75s.45-2.73 1.34-3.75c.89-1.02 1.95-1.53 3.17-1.53h9.37v-4.72h-9.37c-2.6 0-4.81.98-6.63 2.94ZM322.44 37.44c-1.96-1.96-4.33-2.94-7.13-2.94s-5.17.98-7.13 2.94-2.94 4.31-2.94 7.06.98 5.1 2.94 7.06 4.33 2.94 7.13 2.94 5.17-.98 7.13-2.94 2.94-4.31 2.94-7.06-.98-5.1-2.94-7.06Zm-3.46 10.79c-1.02 1.02-2.25 1.53-3.67 1.53s-2.65-.51-3.67-1.53-1.53-2.27-1.53-3.74.51-2.72 1.53-3.74 2.25-1.53 3.67-1.53 2.65.51 3.67 1.53 1.53 2.27 1.53 3.74-.51 2.72-1.53 3.74Z"/></g></svg>