<?xml version="1.0" encoding="UTF-8"?>
<svg id="Layer_1" data-name="Layer 1" xmlns="http://www.w3.org/2000/svg" xmlns:xlink="http://www.w3.org/1999/xlink" version="1.1" viewBox="0 0 379.3 200">
  <defs>
    <style>
      .cls-1 {
        clip-path: url(#clippath);
      }

      .cls-2, .cls-3, .cls-4, .cls-5, .cls-6 {
        stroke-width: 0px;
      }

      .cls-2, .cls-7 {
        fill: none;
      }

      .cls-3, .cls-6 {
        fill: #13110c;
      }

      .cls-8 {
        font-family: HelveticaLTStd-Cond, 'Helvetica LT Std';
        font-size: 10.9px;
      }

      .cls-8, .cls-9 {
        isolation: isolate;
      }

      .cls-8, .cls-5 {
        fill: #fff;
      }

      .cls-4 {
        fill: #000;
      }

      .cls-7 {
        stroke: #000;
        stroke-miterlimit: 10;
        stroke-width: .9px;
      }

      .cls-6 {
        fill-rule: evenodd;
      }
    </style>
    <clipPath id="clippath">
      <rect class="cls-2" x="149.1" y="13" width="80.9" height="144.7"/>
    </clipPath>
  </defs>
  <g>
    <path class="cls-5" d="M189,20.2c-18.1,0-32.7,14.6-32.7,32.7s14.6,32.7,32.7,32.7,32.7-14.6,32.7-32.7-14.6-32.7-32.7-32.7h0Z"/>
    <path class="cls-3" d="M189,13c-22.1,0-39.8,17.9-39.8,39.8v52.8c0,1,.4,2,1.1,2.8s1.8,1.1,2.8,1.1h71.9c1,0,2-.4,2.8-1.1.7-.7,1.1-1.8,1.1-2.8v-52.8c0-22.1-17.9-39.8-39.8-39.8h0ZM189,20.2c18.1,0,32.7,14.6,32.7,32.7s-14.6,32.7-32.7,32.7-32.7-14.6-32.7-32.7,14.6-32.7,32.7-32.7h0Z"/>
    <path class="cls-6" d="M200.7,43.3v24.5h8.4v6.9h-15.6v-31.2h7.2,0Z"/>
    <path class="cls-6" d="M188.7,54.5c0,5.7-4.2,8.7-9.5,8.7s-9.6-2.9-9.6-8.7v-22.9h7.1v23.2c0,1.7,1.1,2.7,2.4,2.7s2.5-1.4,2.5-2.7v-23.2h7.2v22.9h0Z"/>
    <path class="cls-5" d="M158.6,102.7c-3.4,0-4.5-2.3-4.5-4.7s1.6-5.3,4.9-5.3,1.4,0,2,.3l-.2,1.7c-.6-.2-1.3-.3-1.9-.3-1.9,0-2.7,1.4-2.7,3.2s.9,3.3,2.9,3.3,1.4-.2,1.9-.4l.2,1.7c-.7.3-1.6.5-2.5.5"/>
    <path class="cls-5" d="M169.1,94.5h-3.4v2.4h3.2v1.6h-3.2v2.7h3.4v1.6h-5.3v-9.7h5.3v1.6h0Z"/>
    <path class="cls-5" d="M176.6,102.6l-2.7-4.1h0v4.1h-1.9v-9.7h2.8c2.1,0,3.5.7,3.5,2.8s-1,2.5-2.5,2.7c.3.4.6.7.8,1.1l2.3,3.2h-2.4ZM174.6,94.3h-.7v2.8h.6c1.1,0,1.9-.6,1.9-1.5s-.6-1.4-1.8-1.4"/>
    <path class="cls-5" d="M182.4,94.5h-2.5v-1.6h6.9v1.6h-2.5v8.2h-1.9v-8.2h0Z"/>
    <rect class="cls-5" x="189.1" y="92.9" width="1.9" height="9.7"/>
    <path class="cls-5" d="M199.4,98.6h-3.2v4.1h-1.9v-9.7h5.2v1.6h-3.3v2.5h3.2v1.6Z"/>
    <rect class="cls-5" x="202.1" y="92.9" width="1.9" height="9.7"/>
    <path class="cls-5" d="M212.7,94.5h-3.4v2.4h3.2v1.6h-3.2v2.7h3.4v1.6h-5.3v-9.7h5.3v1.6h0Z"/>
    <path class="cls-5" d="M218.3,102.7h-2.7v-9.7h3.2c3.1,0,4.9,1.4,4.9,4.8s-2.2,5.1-5.4,5.1M218.6,94.4h-1.1v6.6h1c1.9,0,3.2-1,3.2-3.3s-.8-3.3-3.1-3.3"/>
    <path class="cls-5" d="M223.7,84.9c0,1.9-1.6,3.5-3.5,3.5s-3.5-1.6-3.5-3.5,1.6-3.5,3.5-3.5,3.5,1.6,3.5,3.5M217.1,84.9c0,1.7,1.3,3,3.1,3s3-1.3,3-3-1.3-3-3-3-3.1,1.3-3.1,3M219.5,87h-.6v-4.1h1.6c.7,0,1.1.6,1.1,1s-.4.8-.9.9h0c.5,0,.6.3.7,1,0,.2,0,.8.2,1h-.6c-.2-.3,0-.8-.2-1.4,0-.5-.5-.5-.6-.5h-.6v1.9ZM219.5,84.6h.8c.4,0,.6-.3.6-.6s-.2-.6-.6-.6h-.8s0,1.3,0,1.3Z"/>
    <path class="cls-4" d="M152.2,111.8h74.4c1.5,0,2.7,1.2,2.7,2.7v39.9c0,1.5-1.2,2.7-2.7,2.7h-74.4c-1.5,0-2.7-1.2-2.7-2.7v-39.9c0-1.5,1.2-2.7,2.7-2.7h0Z"/>
    <g class="cls-1">
      <path class="cls-7" d="M152.2,111.8h74.4c1.5,0,2.7,1.2,2.7,2.7v39.9c0,1.5-1.2,2.7-2.7,2.7h-74.4c-1.5,0-2.7-1.2-2.7-2.7v-39.9c0-1.5,1.2-2.7,2.7-2.7h0Z"/>
    </g>
    <path class="cls-5" d="M168.8,124.3h.6c.2.3.4.6.6.6.2,0,.5.2.7.2s.7,0,1-.4.4-.6.4-.9-.5-1-1.4-1.4c-.2,0-.3,0-.4-.2-.6-.3-1-.6-1.2-.8s-.4-.6-.4-1.1.2-.9.6-1.3c.4-.4.8-.6,1.4-.6s.6,0,1,.2c.3,0,.6.3.8.5v.8h-.6c-.2-.3-.4-.5-.6-.6-.2,0-.5-.2-.6-.2s-.6,0-.8.4c-.2.2-.4.5-.4.8s0,.6.3.7c.2.2.5.4.8.6,0,0,.2,0,.3,0,.6.3,1.1.6,1.3.7.2.2.4.4.5.6,0,.3.2.5.2.7,0,.6-.2,1-.6,1.4s-1,.6-1.7.6-.6,0-.9,0c-.3,0-.6-.2-.9-.4v-1h0Z"/>
    <path class="cls-5" d="M175.2,121.8l-.4,1.5h1.9l-.4-1.5c0-.4-.2-.8-.3-1.2,0-.4,0-.8-.2-1.2h-.4c0,.5,0,.8-.2,1.3,0,.4-.2.7-.3,1.1h.2ZM175.3,118.7h1.1l1.9,6.9h-.9l-.5-1.8h-2l-.5,1.8h-.8l1.9-6.9h0Z"/>
    <path class="cls-5" d="M179.2,125.6v-6.9h3.5v.6h-2.8v2.3h2.6v.6h-2.6v3.3h-.8,0Z"/>
    <path class="cls-5" d="M187.6,125.6h-3.7v-6.9h3.5v.6h-2.8v2.3h2.6v.6h-2.6v2.8h2.9v.6h0Z"/>
    <path class="cls-5" d="M190.6,125.6h-.8v-6.3h-1.9v-.6h4.4v.6h-1.9v6.3h0Z"/>
    <path class="cls-5" d="M194.7,123.2l-2-4.4h.9l1,2.5h0c.2.6.4,1,.5,1.4h.2c0-.3,0-.6.2-.7,0-.3,0-.5.2-.6l.9-2.5h.9l-1.9,4.4v2.5h-.8v-2.5h0Z"/>
    <path class="cls-5" d="M201.4,118.7v4.4c0,.7,0,1.3.3,1.6.2.3.6.5,1,.5s.8,0,1-.4c.2-.3.3-.6.3-1.3v-4.8h.7v5.3c0,.3,0,.5,0,.6,0,.4-.4.6-.7.9-.4.2-.7.3-1.3.3s-.9,0-1.2-.3c-.3-.2-.6-.5-.7-.9,0-.2,0-.4-.2-.6v-5.4h.9Z"/>
    <path class="cls-5" d="M206,124.3h.6c.2.3.4.6.6.6.2,0,.5.2.7.2s.7,0,1-.4.4-.6.4-.9-.5-1-1.4-1.4c-.2,0-.3,0-.4-.2-.6-.3-1-.6-1.2-.8s-.4-.6-.4-1.1.2-.9.6-1.3c.4-.4.8-.6,1.4-.6s.6,0,1,.2c.3,0,.6.3.8.5v.8h-.6c-.2-.3-.4-.5-.6-.6-.2,0-.5-.2-.6-.2s-.6,0-.8.4c-.2.2-.4.5-.4.8s0,.6.3.7c.2.2.5.4.8.6,0,0,.2,0,.3,0,.6.3,1.1.6,1.3.7.2.2.4.4.5.6,0,.3.2.5.2.7,0,.6-.2,1-.6,1.4s-1,.6-1.7.6-.6,0-.9,0c-.3,0-.6-.2-.9-.4v-1h0Z"/>
    <path class="cls-5" d="M165.2,147h-7.4v-13.9h7.1v1.2h-5.6v4.7h5.3v1.3h-5.3v5.5h5.8v1.2Z"/>
    <path class="cls-5" d="M166.7,144.6h1c0,.5.4.8.7,1.1.4.3.8.4,1.4.4.8,0,1.5-.3,1.9-.9s.7-1.5.7-2.5-.2-1.9-.6-2.4-1.1-.8-1.9-.8-.6,0-.8.2c-.3,0-.6.3-.7.5h-1v-7.1h6.6v1.4h-3.9c-.4,0-.7,0-1.2-.3l-.3.3c0,.3.2.6.2,1.1v2.3c0,.2,0,.5-.2.6l.4.3c.4,0,.6-.2.9-.3h.8c1,0,1.9.4,2.6,1.2.6.8,1,1.9,1,3.2s-.4,2.6-1.2,3.5c-.8.9-1.9,1.3-3.2,1.3s-1.1,0-1.6-.3c-.6-.2-1-.5-1.6-.8v-1.7l-.2-.2Z"/>
    <path class="cls-5" d="M175.7,144.6h1c.3.5.6.8.9,1.1s.9.4,1.5.4,1.4-.3,1.9-.8c.5-.6.7-1.2.7-2s-.3-1.6-.8-2c-.6-.5-1.5-.7-2.6-.7v-1.5c1,0,1.9-.3,2.4-.8.6-.5.8-1.2.8-2s-.2-1.3-.6-1.8-1-.6-1.7-.6-.9,0-1.3.4c-.4.3-.6.6-.9,1.1h-.9v-1.7c.6-.4,1.2-.6,1.8-.7.6-.2,1.1-.3,1.7-.3,1.1,0,2,.3,2.7.9s1,1.5,1,2.5-.3,1.6-.7,2.1-1.2,1-2.1,1.3v.3c1,0,1.8.6,2.3,1.1.6.6.8,1.5.8,2.5s-.4,2-1.2,2.9c-.8.7-1.9,1.1-3.2,1.1s-1.2,0-1.9-.3c-.6-.2-1.1-.5-1.7-.8v-1.7.2Z"/>
    <path class="cls-5" d="M189.3,133.8c-.8,0-1.4.4-1.8,1.2-.4.8-.5,2.3-.5,4.5s.2,4.6.5,5.5.9,1.2,1.8,1.2,1.5-.4,1.8-1.1c.4-.7.5-2.5.5-5s-.2-4.1-.6-4.9c-.4-.8-.9-1.3-1.8-1.3h0ZM193.2,140.3c0,2.6-.3,4.4-.9,5.5-.6,1.1-1.6,1.7-2.9,1.7s-2.4-.6-3.1-1.7-.9-3-.9-5.6.3-4.9.8-6c.6-1.1,1.6-1.7,3.1-1.7s2.4.6,3,1.7c.6,1.1.8,3.2.8,6h0Z"/>
    <path class="cls-5" d="M199.6,139.3c.5-.5.8-1,1.1-1.5.2-.5.4-1,.4-1.5,0-.8-.2-1.5-.6-1.9-.4-.5-.9-.7-1.7-.7s-1.2.2-1.6.6c-.4.4-.6.9-.6,1.6s.3,1.4.7,1.9,1.3,1,2.3,1.4h0ZM197.7,140c-.5.4-.8.8-1.1,1.3-.3.6-.4,1.1-.4,1.8s.3,1.7.7,2.2c.5.6,1.1.8,1.9.8s1.3-.2,1.8-.6.6-1,.6-1.9-.3-1.5-.9-2c-.6-.6-1.5-1.1-2.8-1.6h0ZM196.8,139.5c-.6-.6-1.1-1.1-1.4-1.7s-.5-1.2-.5-1.9c0-1,.4-1.9,1-2.5.7-.6,1.6-.9,2.7-.9s2,.4,2.7,1c.7.6,1,1.5,1,2.5s-.2,1.3-.5,1.9c-.4.6-.8,1-1.6,1.5v.2c.8.5,1.4.9,1.8,1.6s.6,1.4.6,2.1-.4,2-1.1,2.8-1.7,1.1-2.9,1.1-2.2-.4-3-1c-.7-.7-1.1-1.7-1.1-2.8s.2-1.4.6-1.9c.4-.6.9-1.2,1.7-1.9v-.2h0Z"/>
    <path class="cls-5" d="M208.1,139.1c-.7,0-1.3.3-1.8.8-.4.6-.6,1.3-.6,2.3s.2,2.1.6,2.8,1,1,1.8,1,1.3-.3,1.8-.9.6-1.5.6-2.5-.2-2.1-.6-2.7c-.4-.6-1-.9-1.9-.9h.2ZM211.1,132.8v.5c-1.2.7-2.1,1.6-3,2.5s-1.4,1.9-1.9,2.9h.3c.4-.2.7-.5,1.1-.6s.7-.2,1.1-.2c1,0,1.9.4,2.4,1.2.6.8.9,1.9.9,3.3s-.4,2.7-1.1,3.5c-.7.9-1.7,1.3-2.8,1.3s-2.1-.5-2.9-1.5-1.1-2.2-1.1-3.9.5-3.3,1.3-4.9,2-3.1,3.6-4.3h1.9v.2Z"/>
    <path class="cls-5" d="M213.7,147l5.5-10.7c.2-.4.4-.7.6-1.1.2-.4.5-.6.6-.9l-.2-.3c-.4,0-.7.2-1.1.3h-4.8v-1.4h7.7v1l-6.6,13.2h-1.7Z"/>
  </g>
  <path class="cls-4" d="M227.3,188.2h-75.1c-1.7,0-3.1-1.4-3.1-3.1v-22.5c0-1.7,1.4-3.1,3.1-3.1h75.1c1.7,0,3.1,1.4,3.1,3.1v22.5c0,1.7-1.4,3.1-3.1,3.1h0Z"/>
  <g class="cls-9">
    <text class="cls-8" transform="translate(152.5 183.4)"><tspan x="0" y="0">Wiring Assembly</tspan></text>
  </g>
  <g class="cls-9">
    <text class="cls-8" transform="translate(174.5 171.6)"><tspan x="0" y="0">LISTED</tspan></text>
  </g>
  <metadata>
    <sfw xmlns="http://ns.adobe.com/SaveForWeb/1.0/">
      <slices/>
      <sliceSourceBounds x="149.03" y="11.84" width="81.35" height="175.11" bottomLeftOrigin="true"/>
    </sfw>
  </metadata>
</svg>