<svg id="Layer_4_copy" data-name="Layer 4 copy" xmlns="http://www.w3.org/2000/svg" version="1.1" viewBox="0 0 344.81 83.97"><defs><style>.cls-1{fill:#f07316;stroke:#f07316}.cls-1,.cls-2{stroke-miterlimit:10}.cls-3{stroke-width:0;fill:#acadad}.cls-2{fill:#acadad;stroke:#acadad}</style></defs><path class="cls-3" d="M4.8 40.86h42.11v1.81H4.8z"/><path class="cls-3" transform="rotate(90 229.045 14.995)" d="M217.12 14.09h23.85v1.81h-23.85z"/><path class="cls-3" transform="rotate(90 205.475 14.995)" d="M193.55 14.09h23.85v1.81h-23.85z"/><path class="cls-3" transform="rotate(90 181.495 14.995)" d="M169.57 14.09h23.85v1.81h-23.85z"/><path class="cls-3" transform="rotate(90 158.345 14.995)" d="M146.42 14.09h23.85v1.81h-23.85z"/><path class="cls-3" transform="rotate(90 134.735 14.995)" d="M122.81 14.09h23.85v1.81h-23.85z"/><path class="cls-3" transform="rotate(90 111.025 14.995)" d="M99.1 14.09h23.85v1.81H99.1z"/><path class="cls-3" transform="rotate(90 87.415 14.995)" d="M75.49 14.09h23.85v1.81H75.49z"/><path class="cls-3" transform="rotate(90 63.625 14.995)" d="M51.7 14.09h23.85v1.81H51.7z"/><path class="cls-3" transform="rotate(90 229.045 68.975)" d="M217.12 68.07h23.85v1.81h-23.85z"/><path class="cls-3" transform="rotate(90 205.48 68.98)" d="M193.55 68.07h23.85v1.81h-23.85z"/><path class="cls-3" transform="rotate(90 181.495 68.975)" d="M169.57 68.07h23.85v1.81h-23.85z"/><path class="cls-3" transform="rotate(90 158.345 68.975)" d="M146.42 68.07h23.85v1.81h-23.85z"/><path class="cls-3" transform="rotate(90 134.73 68.98)" d="M122.81 68.07h23.85v1.81h-23.85z"/><path class="cls-3" transform="rotate(90 111.03 68.98)" d="M99.1 68.07h23.85v1.81H99.1z"/><path class="cls-3" transform="rotate(90 87.415 68.975)" d="M75.49 68.07h23.85v1.81H75.49z"/><path class="cls-3" transform="rotate(90 63.625 68.975)" d="M51.7 68.07h23.85v1.81H51.7z"/><path class="cls-3" transform="rotate(90 39.935 41.985)" d="M1.02 41.1h77.83v1.78H1.02z"/><path class="cls-3" transform="rotate(90 16.89 41.99)" d="M-22.03 41.09H55.8v1.79h-77.83z"/><path class="cls-3" d="M4.8 64.43h247.71v1.81H4.8zM4.8 18.07h247.71v1.81H4.8z"/><path class="cls-1" d="M69.68 46.72c.58.57 1.28.86 2.1.86s1.52-.29 2.1-.86c.58-.57.87-1.26.87-2.07V31.47h4.45v13.18c0 2.02-.72 3.75-2.17 5.18-1.45 1.43-3.19 2.15-5.24 2.15s-3.75-.7-5.19-2.09c-1.43 1.4-3.16 2.09-5.19 2.09s-3.79-.72-5.24-2.15S54 46.67 54 44.65V31.47h4.45v13.18c0 .81.29 1.5.87 2.07.58.57 1.28.86 2.1.86s1.52-.29 2.1-.86c.58-.57.87-1.26.87-2.07V31.47h4.45v13.18c0 .81.29 1.5.87 2.07ZM81.41 31.46h4.45v20.51h-4.45V31.46ZM102.89 46.84c0-.61-.22-1.12-.65-1.55s-.96-.64-1.57-.64h-9.41v-4.39h9.41c.61 0 1.14-.21 1.57-.64s.65-.95.65-1.55-.22-1.12-.65-1.55-.96-.64-1.57-.64h-12.6v-4.39h12.6c1.84 0 3.41.64 4.71 1.93s1.96 2.84 1.96 4.66c0 1.69-.57 3.15-1.7 4.39 1.14 1.24 1.7 2.71 1.7 4.39v5.13h-4.45v-5.13ZM115.86 43.91c-.51 0-.95.18-1.31.53s-.54.79-.54 1.3.18.94.54 1.3.8.53 1.31.53h12.97v4.39h-12.97c-1.74 0-3.22-.61-4.45-1.82-1.23-1.22-1.85-2.68-1.85-4.4 0-1.54.5-2.89 1.5-4.03-1-1.14-1.5-2.49-1.5-4.03 0-1.72.61-3.19 1.85-4.4 1.23-1.22 2.71-1.82 4.45-1.82h12.97v4.39h-12.97c-.51 0-.95.18-1.31.53s-.54.79-.54 1.3.18.94.54 1.3.8.53 1.31.53h12.97v4.39h-12.97ZM147.49 34.47c1.88 2 2.82 4.42 2.82 7.25s-.94 5.25-2.82 7.25-4.15 3-6.81 3h-9.63v-4.39h9.63c1.43 0 2.65-.57 3.67-1.71 1.01-1.14 1.52-2.52 1.52-4.15s-.51-3-1.52-4.15c-1.01-1.14-2.24-1.71-3.67-1.71h-9.63v-4.39h9.63c2.66 0 4.93 1 6.81 3Z"/><path class="cls-2" d="M179.96 44.65h-8.15v7.32h-4.45V40.25h12.6c.61 0 1.14-.21 1.57-.64s.65-.95.65-1.55-.22-1.12-.65-1.55-.96-.64-1.57-.64h-12.6v-4.39h12.6c1.84 0 3.41.64 4.71 1.93s1.96 2.84 1.96 4.66-.65 3.37-1.96 4.66-2.88 1.93-4.71 1.93ZM203.67 46.84c0-.61-.22-1.12-.65-1.55s-.96-.64-1.57-.64H191.3v-4.39h10.15c.61 0 1.14-.21 1.57-.64s.65-.95.65-1.55-.22-1.12-.65-1.55-.96-.64-1.57-.64h-12.6v-4.39h12.6c1.84 0 3.41.64 4.71 1.93s1.96 2.84 1.96 4.66c0 1.69-.57 3.15-1.7 4.39 1.14 1.24 1.7 2.71 1.7 4.39v5.13h-4.45v-5.13ZM220.71 51.97c-2.87 0-5.31-1-7.34-3-2.03-2-3.04-4.42-3.04-7.25s1.01-5.25 3.04-7.25c2.03-2 4.47-3 7.34-3s5.31 1 7.34 3c2.03 2 3.04 4.42 3.04 7.25s-1.01 5.25-3.04 7.25c-2.03 2-4.47 3-7.34 3Zm4.2-6.11c1.16-1.14 1.73-2.52 1.73-4.15s-.58-3-1.73-4.15-2.55-1.71-4.19-1.71-3.04.57-4.19 1.71-1.73 2.52-1.73 4.15.58 3 1.73 4.15 2.55 1.71 4.19 1.71 3.04-.57 4.19-1.71ZM249.75 34.47c1.88 2 2.82 4.42 2.82 7.25s-.94 5.25-2.82 7.25-4.15 3-6.81 3h-9.63v-4.39h9.63c1.43 0 2.66-.57 3.67-1.71 1.01-1.14 1.52-2.52 1.52-4.15s-.51-3-1.52-4.15c-1.01-1.14-2.23-1.71-3.67-1.71h-9.63v-4.39h9.63c2.66 0 4.93 1 6.81 3ZM254.8 42.45V31.46h4.45v10.99c0 1.42.58 2.62 1.73 3.63 1.16 1 2.55 1.5 4.19 1.5s3.04-.5 4.19-1.5c1.16-1 1.73-2.21 1.73-3.63V31.46h4.45v10.99c0 2.63-1.01 4.87-3.04 6.73s-4.47 2.79-7.34 2.79-5.31-.93-7.34-2.79-3.04-4.1-3.04-6.73ZM287.4 31.46h9.63v4.39h-9.63c-1.43 0-2.66.57-3.67 1.71s-1.52 2.52-1.52 4.15.51 3 1.52 4.15 2.24 1.71 3.67 1.71h9.63v4.39h-9.63c-2.66 0-4.93-1-6.81-3s-2.82-4.42-2.82-7.25.94-5.25 2.82-7.25 4.15-3 6.81-3ZM318.52 31.46v4.39h-7.41v16.11h-4.45V35.85h-7.41v-4.39h19.27ZM320.74 37.69c0-1.72.62-3.19 1.85-4.4s2.71-1.82 4.45-1.82h12.97v4.39h-12.97c-.51 0-.95.18-1.31.53s-.54.79-.54 1.3.18.94.54 1.3.8.53 1.31.53h6.67c1.74 0 3.22.61 4.45 1.82s1.85 2.68 1.85 4.4-.62 3.19-1.85 4.4-2.71 1.82-4.45 1.82h-12.97v-4.39h12.97c.51 0 .95-.18 1.31-.53.36-.36.54-.79.54-1.3s-.18-.94-.54-1.3c-.36-.36-.8-.53-1.31-.53h-6.67c-1.74 0-3.22-.61-4.45-1.82s-1.85-2.68-1.85-4.4Z"/></svg>